<svg id="svg" version="1.1" xmlns="http://www.w3.org/2000/svg" xmlns:xlink="http://www.w3.org/1999/xlink" width="400" height="121.9047619047619" viewBox="0, 0, 400,121.9047619047619"><g id="svgg"><path id="path0" d="M26.197 21.958 L 26.264 22.417 25.299 22.360 L 24.333 22.304 24.333 22.819 C 24.333 23.279,24.281 23.333,23.833 23.333 C 23.389 23.333,23.333 23.389,23.333 23.833 C 23.333 24.278,23.278 24.333,22.833 24.333 C 22.338 24.333,22.333 24.343,22.333 25.250 C 22.333 26.117,22.311 26.167,21.917 26.167 L 21.500 26.167 21.500 60.917 L 21.500 95.667 21.917 95.667 C 22.311 95.667,22.333 95.717,22.333 96.583 C 22.333 97.491,22.338 97.500,22.833 97.500 C 23.278 97.500,23.333 97.556,23.333 98.000 C 23.333 98.444,23.389 98.500,23.833 98.500 C 24.278 98.500,24.333 98.556,24.333 99.000 C 24.333 99.495,24.343 99.500,25.250 99.500 C 26.115 99.500,26.167 99.523,26.167 99.913 C 26.167 100.536,24.560 100.511,61.250 100.462 L 95.583 100.417 95.635 99.966 C 95.684 99.543,95.744 99.513,96.635 99.466 C 97.531 99.419,97.586 99.392,97.636 98.958 C 97.677 98.598,97.776 98.500,98.094 98.500 C 98.434 98.500,98.500 98.419,98.500 98.000 C 98.500 97.556,98.556 97.500,99.000 97.500 C 99.495 97.500,99.500 97.491,99.500 96.583 C 99.500 95.676,99.505 95.667,100.000 95.667 L 100.501 95.667 100.459 60.958 L 100.417 26.250 99.958 26.197 C 99.521 26.147,99.500 26.103,99.500 25.239 C 99.500 24.344,99.494 24.333,99.000 24.333 C 98.556 24.333,98.500 24.278,98.500 23.833 C 98.500 23.415,98.434 23.333,98.094 23.333 C 97.776 23.333,97.677 23.235,97.636 22.875 C 97.586 22.441,97.532 22.414,96.625 22.367 C 95.733 22.320,95.667 22.289,95.667 21.908 L 95.667 21.500 60.898 21.500 L 26.129 21.500 26.197 21.958 M120.611 32.944 C 120.370 33.186,120.484 88.613,120.726 88.814 C 120.892 88.951,125.004 88.990,135.935 88.959 L 150.917 88.917 150.917 85.667 L 150.917 82.417 139.042 82.374 L 127.167 82.331 127.167 57.582 L 127.167 32.833 123.944 32.833 C 122.172 32.833,120.672 32.883,120.611 32.944 M40.500 34.250 C 40.500 34.643,40.551 34.667,41.406 34.667 C 42.270 34.667,42.314 34.688,42.364 35.125 C 42.405 35.482,42.516 35.595,42.865 35.635 C 43.211 35.675,43.325 35.789,43.365 36.135 C 43.405 36.482,43.518 36.595,43.865 36.635 C 44.211 36.675,44.325 36.789,44.365 37.135 C 44.402 37.453,44.526 37.599,44.792 37.637 C 45.156 37.688,45.167 37.746,45.167 39.595 L 45.167 41.500 44.750 41.500 C 44.356 41.500,44.333 41.550,44.333 42.417 C 44.333 43.324,44.328 43.333,43.833 43.333 C 43.389 43.333,43.333 43.389,43.333 43.833 C 43.333 44.328,43.324 44.333,42.417 44.333 C 41.550 44.333,41.500 44.356,41.500 44.750 L 41.500 45.167 39.595 45.167 C 37.746 45.167,37.688 45.156,37.637 44.792 C 37.598 44.523,37.453 44.402,37.125 44.364 C 36.822 44.329,36.667 44.214,36.667 44.022 C 36.667 43.652,36.348 43.333,35.978 43.333 C 35.786 43.333,35.671 43.178,35.636 42.875 C 35.598 42.547,35.477 42.402,35.208 42.363 C 34.894 42.319,34.833 42.207,34.833 41.669 C 34.833 40.772,34.693 40.500,34.232 40.500 C 33.668 40.500,33.640 39.551,34.202 39.470 C 34.642 39.406,34.794 38.951,34.817 37.625 C 34.832 36.718,34.856 36.667,35.250 36.667 C 35.602 36.667,35.667 36.589,35.667 36.167 C 35.667 35.722,35.722 35.667,36.167 35.667 C 36.611 35.667,36.667 35.611,36.667 35.167 L 36.667 34.667 38.083 34.667 C 39.483 34.667,39.500 34.662,39.500 34.250 C 39.500 33.898,39.578 33.833,40.000 33.833 C 40.422 33.833,40.500 33.898,40.500 34.250 M293.833 37.161 C 293.833 37.662,293.824 37.667,292.935 37.667 C 292.122 37.667,292.026 37.705,291.934 38.072 C 291.871 38.325,291.692 38.497,291.458 38.530 C 291.086 38.583,291.083 38.605,291.038 41.864 L 290.993 45.144 291.455 45.197 C 291.819 45.239,291.928 45.347,291.969 45.708 C 292.020 46.146,292.064 46.167,292.928 46.167 C 293.772 46.167,293.833 46.194,293.833 46.566 C 293.833 47.087,294.086 47.167,295.752 47.167 C 297.169 47.167,297.667 46.971,297.667 46.413 C 297.667 46.254,297.934 46.169,298.542 46.134 C 299.358 46.087,299.420 46.052,299.469 45.625 C 299.510 45.271,299.611 45.167,299.910 45.167 C 300.465 45.167,300.500 44.962,300.500 41.722 L 300.500 38.804 300.000 38.616 C 299.646 38.482,299.500 38.316,299.500 38.047 C 299.500 37.698,299.426 37.667,298.594 37.667 C 297.730 37.667,297.686 37.646,297.636 37.208 L 297.583 36.750 295.708 36.703 L 293.833 36.656 293.833 37.161 M74.833 51.417 L 74.833 51.833 77.156 51.833 L 79.478 51.833 79.531 52.292 C 79.580 52.725,79.635 52.753,80.531 52.800 C 81.419 52.846,81.483 52.878,81.531 53.293 C 81.568 53.608,81.704 53.765,82.000 53.834 C 82.264 53.895,82.436 54.066,82.470 54.298 C 82.508 54.559,82.638 54.667,82.917 54.667 C 83.223 54.667,83.323 54.769,83.364 55.125 C 83.405 55.485,83.515 55.595,83.875 55.636 C 84.259 55.680,84.333 55.768,84.333 56.178 C 84.333 56.581,84.403 56.667,84.728 56.667 C 85.102 56.667,85.130 56.741,85.240 58.000 C 85.347 59.223,85.389 59.341,85.756 59.433 C 86.145 59.531,86.157 59.587,86.203 61.392 L 86.250 63.250 86.708 63.303 L 87.167 63.355 87.167 75.261 L 87.167 87.167 82.418 87.167 L 77.669 87.167 77.626 75.792 L 77.583 64.417 77.125 64.364 L 76.667 64.311 76.667 62.926 L 76.667 61.542 76.167 61.442 C 75.770 61.362,75.667 61.255,75.667 60.921 C 75.667 60.566,75.589 60.500,75.178 60.500 C 74.768 60.500,74.680 60.426,74.636 60.042 L 74.583 59.583 70.875 59.538 L 67.167 59.494 67.167 59.997 C 67.167 60.494,67.157 60.500,66.268 60.500 C 65.460 60.500,65.359 60.540,65.270 60.898 C 65.209 61.140,65.005 61.338,64.751 61.401 C 64.369 61.497,64.333 61.584,64.333 62.420 C 64.333 63.324,64.328 63.333,63.833 63.333 L 63.333 63.333 63.333 75.250 L 63.333 87.167 58.583 87.167 L 53.833 87.167 53.833 69.500 L 53.833 51.833 58.083 51.833 L 62.333 51.833 62.333 54.488 C 62.333 56.679,62.379 57.189,62.595 57.405 C 63.120 57.929,64.333 57.580,64.333 56.905 C 64.333 56.762,64.500 56.667,64.750 56.667 C 65.102 56.667,65.167 56.589,65.167 56.167 C 65.167 55.722,65.222 55.667,65.667 55.667 C 66.111 55.667,66.167 55.611,66.167 55.167 C 66.167 54.722,66.222 54.667,66.667 54.667 C 67.085 54.667,67.167 54.601,67.167 54.261 C 67.167 53.942,67.265 53.844,67.625 53.803 C 67.985 53.761,68.095 53.652,68.136 53.292 C 68.186 52.854,68.230 52.833,69.094 52.833 C 69.990 52.833,70.000 52.828,70.000 52.333 L 70.000 51.833 71.917 51.833 L 73.833 51.833 73.833 51.417 C 73.833 51.065,73.911 51.000,74.333 51.000 C 74.756 51.000,74.833 51.065,74.833 51.417 M44.333 69.500 L 44.333 87.167 39.583 87.167 L 34.833 87.167 34.833 69.500 L 34.833 51.833 39.583 51.833 L 44.333 51.833 44.333 69.500 M165.708 51.949 C 165.445 52.001,165.333 52.141,165.333 52.422 C 165.333 52.808,165.288 52.822,163.875 52.869 C 162.422 52.917,162.416 52.918,162.364 53.375 C 162.314 53.812,162.270 53.833,161.406 53.833 C 160.551 53.833,160.500 53.857,160.500 54.250 C 160.500 54.629,160.435 54.667,159.792 54.669 C 158.964 54.672,158.754 54.781,158.595 55.292 C 158.515 55.546,158.347 55.667,158.072 55.667 C 157.733 55.667,157.667 55.748,157.667 56.167 C 157.667 56.611,157.611 56.667,157.167 56.667 C 156.722 56.667,156.667 56.722,156.667 57.167 C 156.667 57.611,156.611 57.667,156.167 57.667 C 155.744 57.667,155.667 57.731,155.667 58.083 C 155.667 58.417,155.583 58.500,155.250 58.500 C 154.898 58.500,154.833 58.578,154.833 59.000 C 154.833 59.444,154.778 59.500,154.333 59.500 C 153.839 59.500,153.833 59.510,153.833 60.406 C 153.833 61.270,153.812 61.314,153.375 61.364 C 152.941 61.414,152.914 61.468,152.867 62.375 C 152.821 63.252,152.784 63.333,152.430 63.333 C 151.966 63.333,151.838 63.881,151.835 65.875 C 151.833 67.141,151.825 67.167,151.417 67.167 L 151.000 67.167 151.000 70.917 L 151.000 74.667 151.417 74.667 C 151.828 74.667,151.833 74.685,151.833 76.063 C 151.833 78.089,151.942 78.500,152.479 78.500 C 152.901 78.499,152.917 78.534,152.917 79.458 C 152.917 80.380,152.934 80.419,153.375 80.469 C 153.812 80.520,153.833 80.564,153.833 81.428 C 153.833 82.323,153.839 82.333,154.333 82.333 C 154.778 82.333,154.833 82.389,154.833 82.833 C 154.833 83.256,154.898 83.333,155.250 83.333 C 155.600 83.333,155.667 83.412,155.667 83.822 C 155.667 84.593,155.950 85.167,156.329 85.167 C 156.554 85.167,156.667 85.276,156.667 85.494 C 156.667 85.902,157.140 86.167,157.869 86.167 C 158.336 86.167,158.458 86.248,158.616 86.667 C 158.742 87.000,158.919 87.167,159.149 87.167 C 159.378 87.167,159.529 87.307,159.598 87.583 C 159.699 87.983,159.755 88.000,161.007 88.000 C 162.306 88.000,162.311 88.002,162.364 88.458 C 162.416 88.915,162.422 88.917,163.875 88.965 C 165.277 89.011,165.333 89.028,165.333 89.401 C 165.333 89.926,165.836 89.996,169.604 89.998 C 173.184 90.000,173.635 89.936,173.769 89.401 C 173.863 89.027,173.938 89.009,175.634 88.964 C 177.367 88.918,177.404 88.908,177.499 88.500 C 177.585 88.132,177.704 88.074,178.507 88.000 C 179.278 87.929,179.424 87.862,179.468 87.560 C 179.510 87.262,179.669 87.184,180.426 87.089 C 181.237 86.988,181.333 86.934,181.333 86.582 C 181.333 86.277,181.436 86.177,181.792 86.136 C 182.149 86.095,182.261 85.984,182.302 85.635 C 182.342 85.289,182.455 85.175,182.802 85.135 C 183.148 85.095,183.262 84.982,183.302 84.635 C 183.342 84.289,183.455 84.175,183.802 84.135 C 184.151 84.095,184.262 83.982,184.303 83.625 C 184.344 83.265,184.442 83.167,184.761 83.167 C 185.142 83.167,185.167 83.110,185.167 82.250 C 185.167 81.340,185.170 81.333,185.673 81.333 L 186.180 81.333 186.132 79.958 L 186.083 78.583 185.208 78.533 C 184.466 78.490,184.333 78.433,184.333 78.154 C 184.333 77.770,183.745 77.500,182.906 77.500 C 182.403 77.500,182.333 77.448,182.333 77.075 C 182.333 76.431,180.651 76.516,180.500 77.167 C 180.431 77.465,180.275 77.598,179.952 77.636 C 179.605 77.677,179.500 77.779,179.500 78.076 C 179.500 78.346,179.379 78.494,179.103 78.564 C 178.764 78.649,178.689 78.799,178.591 79.582 L 178.476 80.500 177.658 80.500 C 176.929 80.500,176.828 80.545,176.738 80.907 C 176.666 81.191,176.501 81.330,176.193 81.365 C 175.852 81.405,175.738 81.520,175.698 81.867 C 175.650 82.283,175.582 82.320,174.781 82.367 C 173.976 82.413,173.913 82.448,173.864 82.875 L 173.811 83.333 169.489 83.333 L 165.167 83.333 165.167 82.833 C 165.167 82.339,165.156 82.333,164.261 82.333 C 163.397 82.333,163.353 82.312,163.303 81.875 C 163.261 81.515,163.152 81.405,162.792 81.364 C 162.432 81.323,162.333 81.224,162.333 80.906 C 162.333 80.587,162.246 80.500,161.928 80.500 C 161.609 80.500,161.511 80.402,161.469 80.042 C 161.428 79.685,161.318 79.572,160.968 79.532 C 160.622 79.492,160.508 79.378,160.468 79.032 C 160.428 78.682,160.315 78.572,159.958 78.531 C 159.521 78.480,159.500 78.436,159.500 77.572 C 159.500 76.677,159.494 76.667,159.000 76.667 L 158.500 76.667 158.500 75.250 C 158.500 73.850,158.495 73.833,158.083 73.833 C 157.731 73.833,157.667 73.756,157.667 73.333 L 157.667 72.833 172.417 72.833 L 187.167 72.833 187.167 69.200 C 187.167 65.444,187.119 65.167,186.473 65.167 C 186.221 65.167,186.173 64.975,186.132 63.792 C 186.084 62.429,186.079 62.416,185.625 62.364 C 185.188 62.314,185.167 62.270,185.167 61.406 C 185.167 60.551,185.143 60.500,184.750 60.500 C 184.423 60.500,184.333 60.415,184.333 60.104 C 184.333 59.199,184.133 58.694,183.732 58.594 C 183.446 58.522,183.333 58.377,183.333 58.080 C 183.333 57.732,183.255 57.667,182.833 57.667 C 182.389 57.667,182.333 57.611,182.333 57.167 C 182.333 56.751,182.266 56.667,181.938 56.667 C 181.631 56.667,181.519 56.554,181.442 56.167 C 181.364 55.777,181.253 55.667,180.939 55.667 C 180.651 55.667,180.507 55.551,180.435 55.262 C 180.347 54.915,180.203 54.841,179.416 54.743 C 178.594 54.640,178.500 54.588,178.500 54.231 C 178.500 53.861,178.438 53.833,177.594 53.833 C 176.730 53.833,176.686 53.812,176.636 53.375 L 176.583 52.917 174.719 52.870 L 172.854 52.823 172.802 52.370 L 172.750 51.917 169.417 51.896 C 167.583 51.885,165.915 51.909,165.708 51.949 M203.444 51.944 C 203.383 52.006,203.333 52.231,203.333 52.444 C 203.333 52.827,203.306 52.833,201.569 52.833 L 199.804 52.833 199.616 53.333 C 199.439 53.802,199.372 53.833,198.547 53.833 C 197.726 53.833,197.667 53.860,197.667 54.239 C 197.667 54.558,197.568 54.656,197.208 54.697 C 196.848 54.739,196.739 54.848,196.697 55.208 C 196.650 55.620,196.579 55.667,196.003 55.667 C 195.110 55.667,194.833 55.806,194.833 56.257 C 194.833 56.556,194.729 56.657,194.375 56.697 C 194.015 56.739,193.905 56.848,193.864 57.208 C 193.823 57.562,193.723 57.667,193.423 57.667 C 192.972 57.667,192.833 57.944,192.833 58.847 C 192.833 59.434,192.791 59.500,192.412 59.500 C 192.078 59.500,191.971 59.603,191.892 60.000 C 191.814 60.387,191.702 60.500,191.396 60.500 C 191.027 60.500,191.000 60.563,191.000 61.417 C 191.000 62.188,190.953 62.333,190.700 62.333 C 190.115 62.333,190.000 62.680,190.000 64.439 L 190.000 66.145 189.542 66.197 L 189.083 66.250 189.083 70.917 L 189.083 75.583 189.542 75.636 L 190.000 75.689 190.000 77.442 L 190.000 79.196 190.492 79.382 C 190.937 79.549,190.990 79.649,191.034 80.409 C 191.076 81.122,191.137 81.258,191.439 81.301 C 191.682 81.335,191.827 81.508,191.893 81.842 C 191.971 82.230,192.080 82.333,192.412 82.333 C 192.791 82.333,192.833 82.399,192.833 82.986 C 192.833 83.890,192.972 84.167,193.423 84.167 C 193.723 84.167,193.823 84.271,193.864 84.625 C 193.905 84.985,194.015 85.095,194.375 85.136 C 194.728 85.177,194.833 85.278,194.833 85.575 C 194.833 85.995,195.193 86.160,196.114 86.164 C 196.568 86.166,196.652 86.233,196.697 86.625 C 196.739 86.985,196.848 87.095,197.208 87.136 C 197.568 87.177,197.667 87.276,197.667 87.594 C 197.667 87.973,197.726 88.000,198.547 88.000 C 199.372 88.000,199.439 88.031,199.616 88.500 L 199.804 89.000 201.569 89.000 C 203.317 89.000,203.333 89.004,203.333 89.397 C 203.333 89.946,203.623 89.995,206.833 89.996 C 210.221 89.996,210.798 89.917,210.866 89.438 C 210.913 89.111,211.032 89.080,212.375 89.035 L 213.833 88.987 213.833 88.494 C 213.833 88.006,213.845 88.000,214.750 88.000 C 215.605 88.000,215.667 87.973,215.667 87.603 C 215.667 87.246,215.761 87.193,216.573 87.092 C 217.329 86.997,217.488 86.919,217.531 86.621 C 217.564 86.399,217.741 86.227,218.000 86.167 C 218.298 86.098,218.432 85.942,218.469 85.618 C 218.513 85.244,218.604 85.167,219.001 85.167 C 219.413 85.167,219.490 85.092,219.558 84.625 C 219.601 84.327,219.625 85.171,219.610 86.500 L 219.583 88.917 222.375 88.962 L 225.167 89.008 225.167 70.921 L 225.167 52.833 222.338 52.833 L 219.510 52.833 219.575 55.292 C 219.612 56.644,219.605 57.506,219.560 57.208 C 219.490 56.739,219.414 56.667,218.989 56.667 C 218.559 56.667,218.500 56.608,218.500 56.178 C 218.500 55.768,218.426 55.680,218.042 55.636 C 217.718 55.599,217.568 55.476,217.531 55.219 C 217.488 54.913,217.336 54.837,216.573 54.742 C 215.761 54.640,215.667 54.587,215.667 54.231 C 215.667 53.861,215.604 53.833,214.761 53.833 C 213.897 53.833,213.853 53.812,213.803 53.375 C 213.751 52.923,213.731 52.916,212.333 52.833 C 211.042 52.757,210.912 52.718,210.866 52.392 C 210.837 52.190,210.655 51.991,210.449 51.936 C 209.942 51.800,203.581 51.808,203.444 51.944 M267.281 51.941 C 267.218 52.004,267.167 52.231,267.167 52.444 C 267.167 52.821,267.123 52.833,265.750 52.833 L 264.333 52.833 264.333 53.333 L 264.333 53.833 263.333 53.833 C 262.378 53.833,262.333 53.852,262.333 54.250 C 262.333 54.624,262.266 54.667,261.680 54.667 C 260.780 54.667,260.500 54.805,260.500 55.249 C 260.500 55.544,260.388 55.645,260.000 55.702 L 259.500 55.776 259.500 54.301 L 259.500 52.826 256.208 52.871 L 252.917 52.917 252.874 70.635 C 252.845 82.784,252.887 88.455,253.007 88.680 C 253.173 88.990,253.347 89.005,256.299 88.962 L 259.417 88.917 259.459 76.136 L 259.502 63.355 259.959 63.303 C 260.315 63.262,260.428 63.151,260.468 62.802 C 260.508 62.455,260.622 62.342,260.968 62.302 C 261.318 62.261,261.428 62.149,261.469 61.792 C 261.511 61.432,261.609 61.333,261.928 61.333 C 262.247 61.333,262.333 61.246,262.333 60.925 C 262.333 60.545,262.399 60.513,263.292 60.467 C 264.194 60.420,264.253 60.391,264.302 59.967 C 264.350 59.550,264.418 59.513,265.219 59.467 C 266.024 59.420,266.087 59.385,266.136 58.958 L 266.189 58.500 269.500 58.500 L 272.811 58.500 272.864 58.958 C 272.914 59.392,272.968 59.419,273.875 59.467 C 274.814 59.516,274.833 59.527,274.833 60.008 C 274.833 60.422,274.900 60.500,275.250 60.500 C 275.624 60.500,275.667 60.568,275.667 61.153 C 275.667 62.058,275.805 62.333,276.261 62.333 C 276.637 62.333,276.655 62.389,276.702 63.708 C 276.750 65.071,276.754 65.084,277.208 65.136 L 277.667 65.189 277.667 77.094 L 277.667 89.000 280.500 89.000 L 283.333 89.000 283.333 74.250 L 283.333 59.500 282.833 59.500 C 282.338 59.500,282.333 59.491,282.333 58.583 C 282.333 57.728,282.307 57.667,281.936 57.667 C 281.579 57.667,281.527 57.573,281.424 56.750 C 281.327 55.975,281.249 55.819,280.919 55.736 C 280.695 55.680,280.487 55.471,280.431 55.248 C 280.348 54.917,280.192 54.840,279.416 54.743 C 278.602 54.641,278.500 54.585,278.500 54.242 C 278.500 53.946,278.394 53.843,278.048 53.803 C 277.725 53.765,277.569 53.631,277.499 53.333 C 277.404 52.925,277.367 52.916,275.628 52.869 L 273.854 52.822 273.802 52.369 L 273.750 51.917 270.573 51.872 C 268.826 51.847,267.344 51.878,267.281 51.941 M320.615 51.941 C 320.552 52.004,320.500 52.231,320.500 52.444 C 320.500 52.827,320.471 52.833,318.783 52.833 C 317.019 52.833,316.667 52.948,316.667 53.525 C 316.667 53.759,316.494 53.826,315.792 53.866 C 315.044 53.909,314.909 53.969,314.866 54.273 C 314.831 54.515,314.659 54.660,314.324 54.727 C 313.936 54.804,313.833 54.913,313.833 55.246 C 313.833 55.602,313.757 55.667,313.333 55.667 L 312.833 55.667 312.833 54.246 L 312.833 52.826 309.542 52.871 L 306.250 52.917 306.208 70.635 C 306.178 82.784,306.220 88.455,306.340 88.680 C 306.506 88.990,306.680 89.005,309.633 88.962 L 312.750 88.917 312.793 76.136 L 312.835 63.355 313.293 63.303 C 313.649 63.262,313.761 63.151,313.802 62.802 C 313.842 62.455,313.955 62.342,314.302 62.302 C 314.651 62.261,314.762 62.149,314.803 61.792 C 314.844 61.432,314.942 61.333,315.261 61.333 C 315.583 61.333,315.667 61.247,315.667 60.917 C 315.667 60.530,315.724 60.500,316.467 60.500 C 317.308 60.500,317.667 60.293,317.667 59.809 C 317.667 59.575,317.839 59.507,318.542 59.467 C 319.358 59.420,319.420 59.386,319.469 58.958 L 319.522 58.500 322.833 58.500 L 326.145 58.500 326.197 58.958 C 326.238 59.315,326.349 59.428,326.698 59.468 C 327.012 59.505,327.162 59.630,327.198 59.885 C 327.241 60.184,327.408 60.277,328.125 60.398 C 329.000 60.547,329.000 60.547,329.000 61.176 C 329.000 62.058,329.141 62.333,329.594 62.333 C 329.971 62.333,329.988 62.389,330.035 63.708 C 330.083 65.071,330.088 65.084,330.542 65.136 L 331.000 65.189 331.000 77.094 L 331.000 89.000 333.833 89.000 L 336.667 89.000 336.667 74.250 L 336.667 59.500 336.167 59.500 C 335.672 59.500,335.667 59.491,335.667 58.583 C 335.667 57.728,335.640 57.667,335.269 57.667 C 334.912 57.667,334.860 57.573,334.757 56.750 C 334.660 55.975,334.583 55.819,334.252 55.736 C 334.029 55.680,333.820 55.471,333.764 55.248 C 333.681 54.917,333.525 54.840,332.750 54.743 C 331.935 54.641,331.833 54.585,331.833 54.242 C 331.833 53.946,331.728 53.843,331.382 53.803 C 331.058 53.765,330.902 53.631,330.833 53.333 C 330.738 52.925,330.700 52.916,328.962 52.869 L 327.188 52.822 327.136 52.369 L 327.083 51.917 323.906 51.872 C 322.159 51.847,320.678 51.878,320.615 51.941 M355.781 51.941 C 355.718 52.004,355.667 52.231,355.667 52.444 C 355.667 52.828,355.642 52.833,353.844 52.833 L 352.022 52.833 351.969 53.292 C 351.919 53.726,351.866 53.753,350.958 53.800 C 350.074 53.846,350.000 53.881,350.000 54.246 C 350.000 54.602,349.905 54.655,349.083 54.757 C 348.269 54.859,348.167 54.915,348.167 55.258 C 348.167 55.556,348.061 55.657,347.708 55.697 C 347.348 55.739,347.239 55.848,347.197 56.208 C 347.153 56.592,347.065 56.667,346.656 56.667 C 346.223 56.667,346.167 56.725,346.167 57.167 C 346.167 57.589,346.102 57.667,345.750 57.667 C 345.421 57.667,345.333 57.751,345.333 58.067 C 345.333 58.362,345.202 58.513,344.833 58.642 C 344.367 58.804,344.333 58.872,344.333 59.658 C 344.333 60.482,344.323 60.500,343.833 60.500 C 343.339 60.500,343.333 60.510,343.333 61.406 C 343.333 62.270,343.312 62.314,342.875 62.364 L 342.417 62.417 342.417 63.840 L 342.417 65.264 341.956 65.196 L 341.496 65.128 341.539 70.856 L 341.583 76.583 341.952 76.636 C 342.293 76.684,342.324 76.789,342.368 78.052 C 342.416 79.403,342.421 79.417,342.875 79.469 C 343.312 79.520,343.333 79.564,343.333 80.428 C 343.333 81.319,343.341 81.333,343.825 81.333 C 344.299 81.333,344.318 81.363,344.366 82.202 C 344.411 82.972,344.464 83.081,344.833 83.166 C 345.132 83.236,345.265 83.392,345.303 83.715 C 345.343 84.064,345.445 84.167,345.750 84.167 C 346.056 84.167,346.156 84.269,346.197 84.625 C 346.238 84.982,346.349 85.095,346.698 85.135 C 347.045 85.175,347.158 85.289,347.198 85.635 C 347.238 85.981,347.352 86.095,347.698 86.135 C 348.012 86.171,348.162 86.296,348.198 86.552 C 348.240 86.849,348.410 86.945,349.117 87.071 C 349.807 87.193,349.995 87.296,350.034 87.571 C 350.076 87.868,350.218 87.924,351.042 87.967 C 351.932 88.013,352.000 88.045,352.000 88.422 C 352.000 88.920,352.240 88.986,354.250 89.042 C 355.638 89.080,355.754 89.110,355.801 89.438 C 355.867 89.906,356.450 89.996,359.445 89.998 C 362.116 90.000,362.333 89.955,362.333 89.399 C 362.333 89.004,362.350 89.000,364.050 89.000 C 365.821 89.000,366.167 88.886,366.167 88.300 C 366.167 88.048,366.312 88.000,367.080 88.000 C 367.916 88.000,368.003 87.964,368.098 87.583 C 368.173 87.284,368.315 87.167,368.601 87.167 C 368.933 87.167,369.000 87.083,369.000 86.667 C 369.000 86.190,369.033 86.167,369.708 86.164 C 370.529 86.161,370.763 86.045,370.878 85.583 C 370.924 85.400,370.970 86.314,370.981 87.614 L 371.000 89.978 370.542 90.031 C 370.114 90.080,370.080 90.142,370.033 90.958 C 369.987 91.764,369.950 91.833,369.570 91.833 C 369.248 91.833,369.137 91.940,369.060 92.324 C 368.993 92.659,368.849 92.831,368.606 92.866 C 368.360 92.901,368.234 93.055,368.198 93.365 C 368.158 93.711,368.045 93.825,367.698 93.865 C 367.384 93.901,367.234 94.026,367.198 94.282 C 367.162 94.537,367.012 94.662,366.698 94.698 C 366.349 94.739,366.238 94.851,366.197 95.208 C 366.145 95.661,366.130 95.667,364.939 95.667 C 363.694 95.667,363.333 95.824,363.333 96.367 C 363.333 96.648,363.062 96.667,359.011 96.667 L 354.689 96.667 354.636 96.208 L 354.583 95.750 352.802 95.703 L 351.021 95.656 350.969 95.203 C 350.920 94.776,350.863 94.747,349.958 94.700 C 349.066 94.653,349.000 94.622,349.000 94.242 C 349.000 93.858,348.944 93.833,348.094 93.833 C 347.230 93.833,347.186 93.812,347.136 93.375 C 347.087 92.949,347.023 92.913,346.222 92.867 L 345.362 92.817 345.246 93.896 C 345.182 94.490,345.157 96.146,345.190 97.577 C 345.258 100.489,345.259 100.493,346.447 100.497 C 347.041 100.500,347.151 100.555,347.197 100.875 C 347.246 101.225,347.343 101.253,348.625 101.298 C 349.808 101.340,350.000 101.388,350.000 101.640 C 350.000 102.275,350.298 102.333,353.533 102.333 L 356.667 102.333 356.667 102.731 C 356.667 103.629,362.172 103.605,362.303 102.706 C 362.354 102.354,362.433 102.341,364.719 102.296 L 367.083 102.250 367.135 101.798 C 367.187 101.353,367.206 101.346,368.552 101.298 C 369.788 101.255,369.921 101.217,369.966 100.904 C 370.005 100.629,370.193 100.527,370.883 100.404 C 371.590 100.278,371.760 100.183,371.802 99.885 C 371.838 99.630,371.988 99.505,372.302 99.468 C 372.651 99.428,372.762 99.315,372.803 98.958 C 372.847 98.574,372.935 98.500,373.344 98.500 C 373.777 98.500,373.833 98.442,373.833 98.000 C 373.833 97.556,373.889 97.500,374.333 97.500 C 374.750 97.500,374.833 97.433,374.833 97.101 C 374.833 96.815,374.951 96.673,375.250 96.598 C 375.631 96.503,375.667 96.416,375.667 95.580 C 375.667 94.676,375.672 94.667,376.167 94.667 C 376.661 94.667,376.667 94.657,376.667 93.753 C 376.667 92.922,376.704 92.830,377.076 92.737 C 377.691 92.583,377.684 92.852,377.632 72.083 L 377.583 52.917 374.333 52.917 L 371.083 52.917 370.991 54.750 C 370.941 55.758,370.884 56.423,370.866 56.226 C 370.827 55.803,370.534 55.667,369.664 55.667 C 369.088 55.667,369.017 55.620,368.969 55.208 C 368.932 54.887,368.809 54.735,368.557 54.699 C 368.339 54.668,368.158 54.488,368.096 54.240 C 368.003 53.871,367.909 53.833,367.091 53.833 C 366.231 53.833,366.186 53.812,366.136 53.375 L 366.083 52.917 364.219 52.870 L 362.354 52.823 362.302 52.370 L 362.250 51.917 359.073 51.872 C 357.326 51.847,355.844 51.878,355.781 51.941 M231.938 53.351 C 231.801 54.038,231.841 87.766,231.980 88.417 L 232.086 88.917 234.918 88.964 C 236.476 88.990,237.919 88.970,238.125 88.919 L 238.500 88.827 238.500 77.008 L 238.500 65.189 238.958 65.136 C 239.385 65.087,239.420 65.024,239.467 64.217 C 239.509 63.493,239.577 63.332,239.883 63.236 C 240.385 63.080,240.494 62.867,240.497 62.042 C 240.500 61.366,240.523 61.333,241.000 61.333 C 241.412 61.333,241.500 61.265,241.500 60.947 C 241.500 60.612,241.616 60.540,242.375 60.405 C 243.098 60.277,243.259 60.185,243.303 59.875 C 243.351 59.539,243.450 59.500,244.262 59.500 C 245.156 59.500,245.167 59.494,245.167 59.000 L 245.167 58.500 247.583 58.500 L 250.000 58.500 250.000 55.664 L 250.000 52.828 245.792 52.872 L 241.583 52.917 241.531 53.375 C 241.486 53.759,241.398 53.833,240.989 53.833 C 240.585 53.833,240.500 53.902,240.500 54.231 C 240.500 54.588,240.406 54.640,239.583 54.743 C 238.698 54.853,238.666 54.875,238.635 55.387 C 238.618 55.678,238.562 55.242,238.510 54.417 L 238.417 52.917 235.230 52.871 L 232.043 52.826 231.938 53.351 M287.280 52.942 C 287.218 53.005,287.167 54.281,287.167 55.778 L 287.167 58.500 289.999 58.500 L 292.832 58.500 292.874 73.708 L 292.917 88.917 296.018 88.962 C 298.493 88.998,299.158 88.961,299.311 88.777 C 299.452 88.607,299.490 83.922,299.459 70.732 L 299.417 52.917 293.405 52.873 C 290.098 52.849,287.342 52.880,287.280 52.942 M171.014 58.500 C 172.480 58.500,172.833 58.546,172.833 58.738 C 172.833 59.193,173.341 59.500,174.095 59.500 C 174.766 59.500,174.833 59.537,174.833 59.905 C 174.833 60.270,174.922 60.320,175.750 60.424 C 176.573 60.527,176.667 60.579,176.667 60.936 C 176.667 61.266,176.751 61.333,177.167 61.333 C 177.656 61.333,177.667 61.351,177.667 62.171 C 177.667 62.908,177.716 63.027,178.079 63.165 C 178.309 63.252,178.537 63.508,178.597 63.744 C 178.673 64.049,178.814 64.167,179.101 64.167 C 179.483 64.167,179.500 64.215,179.500 65.320 C 179.500 66.740,179.593 67.000,180.101 67.000 C 180.433 67.000,180.500 67.084,180.500 67.500 L 180.500 68.000 169.500 68.000 L 158.500 68.000 158.500 66.583 L 158.500 65.167 159.000 65.167 C 159.494 65.167,159.500 65.156,159.500 64.261 C 159.500 63.397,159.521 63.353,159.958 63.303 C 160.318 63.261,160.428 63.152,160.469 62.792 C 160.511 62.430,160.609 62.333,160.932 62.333 C 161.254 62.333,161.363 62.226,161.442 61.833 C 161.519 61.446,161.631 61.333,161.938 61.333 C 162.246 61.333,162.333 61.244,162.333 60.928 C 162.333 60.609,162.432 60.511,162.792 60.469 C 163.152 60.428,163.261 60.318,163.303 59.958 C 163.353 59.521,163.397 59.500,164.261 59.500 C 165.156 59.500,165.167 59.494,165.167 59.000 L 165.167 58.500 167.083 58.500 C 168.499 58.500,169.003 58.445,169.013 58.292 C 169.024 58.125,169.043 58.125,169.110 58.292 C 169.170 58.440,169.714 58.500,171.014 58.500 M209.667 58.500 L 211.807 58.500 211.917 59.000 C 212.000 59.380,212.119 59.500,212.412 59.500 C 212.681 59.500,212.828 59.622,212.899 59.905 C 212.986 60.252,213.131 60.326,213.917 60.424 C 214.740 60.527,214.833 60.579,214.833 60.936 C 214.833 61.246,214.923 61.333,215.239 61.333 C 215.558 61.333,215.656 61.432,215.697 61.792 C 215.739 62.152,215.848 62.261,216.208 62.303 C 216.620 62.350,216.667 62.421,216.667 62.997 C 216.667 63.894,216.807 64.167,217.268 64.167 C 217.640 64.167,217.667 64.228,217.667 65.080 C 217.667 65.916,217.702 66.003,218.083 66.098 C 218.417 66.182,218.500 66.307,218.501 66.726 C 218.506 68.382,218.692 69.000,219.183 69.000 L 219.654 69.000 219.654 70.917 L 219.654 72.833 219.183 72.833 C 218.692 72.833,218.506 73.452,218.501 75.107 C 218.500 75.526,218.417 75.651,218.083 75.735 C 217.702 75.831,217.667 75.918,217.667 76.753 C 217.667 77.606,217.640 77.667,217.268 77.667 C 216.807 77.667,216.667 77.939,216.667 78.836 C 216.667 79.412,216.620 79.483,216.208 79.531 C 215.848 79.572,215.739 79.682,215.697 80.042 C 215.656 80.402,215.558 80.500,215.239 80.500 C 214.917 80.500,214.833 80.586,214.833 80.917 C 214.833 81.244,214.749 81.333,214.438 81.333 C 213.524 81.333,212.996 81.540,212.896 81.938 C 212.828 82.211,212.678 82.333,212.412 82.333 C 212.119 82.333,212.000 82.454,211.917 82.833 L 211.807 83.333 207.581 83.333 L 203.355 83.333 203.303 82.875 C 203.254 82.448,203.190 82.413,202.385 82.367 C 201.584 82.320,201.517 82.283,201.469 81.867 C 201.428 81.518,201.315 81.405,200.969 81.365 C 200.655 81.329,200.505 81.204,200.469 80.948 C 200.432 80.690,200.282 80.568,199.958 80.531 C 199.574 80.486,199.500 80.398,199.500 79.989 C 199.500 79.557,199.442 79.500,199.000 79.500 C 198.556 79.500,198.500 79.444,198.500 79.000 C 198.500 78.578,198.435 78.500,198.083 78.500 C 197.710 78.500,197.667 78.432,197.667 77.847 C 197.667 76.939,197.528 76.667,197.066 76.667 C 196.683 76.667,196.667 76.619,196.667 75.514 C 196.667 74.094,196.574 73.833,196.066 73.833 L 195.667 73.833 195.667 70.917 L 195.667 68.000 196.066 68.000 C 196.574 68.000,196.667 67.740,196.667 66.320 C 196.667 65.215,196.683 65.167,197.066 65.167 C 197.528 65.167,197.667 64.895,197.667 63.986 C 197.667 63.401,197.710 63.333,198.083 63.333 C 198.435 63.333,198.500 63.256,198.500 62.833 C 198.500 62.389,198.556 62.333,199.000 62.333 C 199.442 62.333,199.500 62.277,199.500 61.844 C 199.500 61.435,199.574 61.347,199.958 61.303 C 200.282 61.265,200.432 61.143,200.469 60.885 C 200.505 60.630,200.655 60.505,200.969 60.468 C 201.318 60.428,201.428 60.315,201.469 59.958 C 201.520 59.521,201.564 59.500,202.428 59.500 C 203.321 59.500,203.333 59.493,203.333 59.005 L 203.333 58.511 205.208 58.459 C 206.240 58.431,207.183 58.429,207.305 58.454 C 207.427 58.479,208.490 58.500,209.667 58.500 M363.333 58.810 C 363.333 59.293,363.693 59.500,364.533 59.500 C 365.266 59.500,365.333 59.534,365.333 59.899 C 365.333 60.361,365.605 60.500,366.514 60.500 C 367.099 60.500,367.167 60.543,367.167 60.917 C 367.167 61.269,367.244 61.333,367.667 61.333 C 368.160 61.333,368.167 61.345,368.167 62.232 C 368.167 63.045,368.205 63.140,368.572 63.232 C 368.825 63.296,368.997 63.475,369.030 63.709 C 369.068 63.975,369.214 64.098,369.534 64.135 C 369.957 64.184,369.987 64.244,370.034 65.135 C 370.081 66.031,370.108 66.086,370.542 66.136 L 371.000 66.189 371.000 70.928 L 371.000 75.667 370.500 75.667 C 370.006 75.667,370.000 75.677,370.000 76.570 C 370.000 77.438,369.981 77.478,369.500 77.583 C 369.120 77.667,369.000 77.786,369.000 78.079 C 369.000 78.351,368.877 78.495,368.583 78.568 C 368.202 78.664,368.167 78.751,368.167 79.587 L 368.167 80.500 367.253 80.500 C 366.423 80.500,366.330 80.537,366.238 80.907 C 366.176 81.151,365.994 81.335,365.783 81.365 C 365.566 81.397,365.393 81.577,365.334 81.833 C 365.248 82.201,365.130 82.260,364.327 82.333 C 363.482 82.411,363.413 82.450,363.364 82.875 L 363.311 83.333 359.500 83.333 L 355.689 83.333 355.636 82.875 C 355.587 82.448,355.524 82.413,354.708 82.366 C 353.902 82.320,353.833 82.283,353.833 81.904 C 353.833 81.581,353.727 81.470,353.342 81.393 C 353.008 81.327,352.835 81.182,352.801 80.939 C 352.766 80.693,352.612 80.567,352.302 80.532 C 351.955 80.492,351.842 80.378,351.802 80.032 C 351.765 79.714,351.641 79.568,351.375 79.530 C 351.151 79.498,351.000 79.361,351.000 79.188 C 351.000 78.815,350.680 78.500,350.300 78.500 C 350.094 78.500,350.000 78.374,350.000 78.097 C 350.000 77.785,349.888 77.668,349.507 77.585 C 349.018 77.477,349.013 77.465,348.965 76.197 C 348.920 75.013,348.888 74.913,348.542 74.863 L 348.167 74.810 348.167 70.488 L 348.167 66.167 348.583 66.167 C 348.981 66.167,349.000 66.122,349.000 65.167 L 349.000 64.167 349.500 64.167 C 349.921 64.167,350.000 64.101,350.000 63.753 C 350.000 63.454,350.112 63.312,350.407 63.238 C 350.651 63.176,350.835 62.994,350.865 62.783 C 350.897 62.566,351.077 62.393,351.333 62.334 C 351.628 62.265,351.765 62.108,351.802 61.795 C 351.842 61.456,351.957 61.342,352.302 61.302 C 352.612 61.266,352.766 61.140,352.801 60.894 C 352.835 60.651,353.008 60.507,353.342 60.440 C 353.727 60.363,353.833 60.252,353.833 59.930 C 353.833 59.550,353.902 59.513,354.708 59.467 C 355.522 59.420,355.587 59.385,355.636 58.964 L 355.688 58.510 357.552 58.464 C 361.348 58.368,363.333 58.487,363.333 58.810 " stroke="none" fill="#0c64c4" fill-rule="evenodd"></path><path id="path1" d="M219.562 56.000 C 219.562 56.962,219.589 57.356,219.623 56.875 C 219.657 56.394,219.657 55.606,219.623 55.125 C 219.589 54.644,219.562 55.038,219.562 56.000 M219.552 69.917 C 219.553 70.467,219.584 70.672,219.621 70.372 C 219.658 70.072,219.657 69.622,219.619 69.372 C 219.581 69.122,219.551 69.367,219.552 69.917 M219.552 71.917 C 219.553 72.467,219.584 72.672,219.621 72.372 C 219.658 72.072,219.657 71.622,219.619 71.372 C 219.581 71.122,219.551 71.367,219.552 71.917 M219.561 85.750 C 219.561 86.667,219.589 87.020,219.623 86.536 C 219.657 86.052,219.656 85.302,219.622 84.869 C 219.588 84.437,219.560 84.833,219.561 85.750 " stroke="none" fill="#1064c4" fill-rule="evenodd"></path><path id="path2" d="M219.562 56.000 C 219.562 56.962,219.589 57.356,219.623 56.875 C 219.657 56.394,219.657 55.606,219.623 55.125 C 219.589 54.644,219.562 55.038,219.562 56.000 M219.552 69.917 C 219.553 70.467,219.584 70.672,219.621 70.372 C 219.658 70.072,219.657 69.622,219.619 69.372 C 219.581 69.122,219.551 69.367,219.552 69.917 M219.552 71.917 C 219.553 72.467,219.584 72.672,219.621 72.372 C 219.658 72.072,219.657 71.622,219.619 71.372 C 219.581 71.122,219.551 71.367,219.552 71.917 M219.561 85.750 C 219.561 86.667,219.589 87.020,219.623 86.536 C 219.657 86.052,219.656 85.302,219.622 84.869 C 219.588 84.437,219.560 84.833,219.561 85.750 " stroke="none" fill="#1064c4" fill-rule="evenodd"></path><path id="path3" d="M219.562 56.000 C 219.562 56.962,219.589 57.356,219.623 56.875 C 219.657 56.394,219.657 55.606,219.623 55.125 C 219.589 54.644,219.562 55.038,219.562 56.000 M219.552 69.917 C 219.553 70.467,219.584 70.672,219.621 70.372 C 219.658 70.072,219.657 69.622,219.619 69.372 C 219.581 69.122,219.551 69.367,219.552 69.917 M219.552 71.917 C 219.553 72.467,219.584 72.672,219.621 72.372 C 219.658 72.072,219.657 71.622,219.619 71.372 C 219.581 71.122,219.551 71.367,219.552 71.917 M219.561 85.750 C 219.561 86.667,219.589 87.020,219.623 86.536 C 219.657 86.052,219.656 85.302,219.622 84.869 C 219.588 84.437,219.560 84.833,219.561 85.750 " stroke="none" fill="#1064c4" fill-rule="evenodd"></path><path id="path4" d="M219.562 56.000 C 219.562 56.962,219.589 57.356,219.623 56.875 C 219.657 56.394,219.657 55.606,219.623 55.125 C 219.589 54.644,219.562 55.038,219.562 56.000 M219.552 69.917 C 219.553 70.467,219.584 70.672,219.621 70.372 C 219.658 70.072,219.657 69.622,219.619 69.372 C 219.581 69.122,219.551 69.367,219.552 69.917 M219.552 71.917 C 219.553 72.467,219.584 72.672,219.621 72.372 C 219.658 72.072,219.657 71.622,219.619 71.372 C 219.581 71.122,219.551 71.367,219.552 71.917 M219.561 85.750 C 219.561 86.667,219.589 87.020,219.623 86.536 C 219.657 86.052,219.656 85.302,219.622 84.869 C 219.588 84.437,219.560 84.833,219.561 85.750 " stroke="none" fill="#1064c4" fill-rule="evenodd"></path></g></svg>