<svg id="SvgjsSvg1001" width="288" height="288" xmlns="http://www.w3.org/2000/svg" version="1.1" xmlns:xlink="http://www.w3.org/1999/xlink" xmlns:svgjs="http://svgjs.com/svgjs"><defs id="SvgjsDefs1002"></defs><g id="SvgjsG1008"><svg xmlns="http://www.w3.org/2000/svg" width="288" height="288" version="1.0" viewBox="0 0 635 540"><g transform="matrix(.1 0 0 -.1 0 540)" fill="#2867b2" class="color000 svgShape"><path d="M278 5376c-105-38-201-127-240-224l-23-57 0-2375 0-2375 23-57c31-76 105-156 184-199l63-34 2400 0 2400 0 62 34c77 41 146 113 181 189l27 57 0 2385 0 2385-27 57c-35 76-109 153-183 192l-60 31-2385 2c-1945 2-2392 0-2422-11zm1051-735c84-26 137-59 202-128 63-66 89-111 114-197 23-77 16-199-14-278-96-249-387-368-624-255-294 139-358 521-126 747 119 115 295 159 448 111zm2538-1207c45-8 120-28 167-45 285-103 437-316 509-714 22-117 22-139 22-980l0-860-395 0-395 0-6 780c-5 710-7 785-23 840-28 93-66 162-113 206-65 60-121 81-235 87-223 11-360-58-438-223-64-137-64-135-70-950l-5-740-395 0-395 0-3 1278-2 1277 385 0 385 0 0-177 0-178 27 40c135 202 357 342 590 374 84 12 280 4 390-15zm-2269-1321l-3-1278-395 0-395 0-3 1278-2 1277 400 0 400 0-2-1277zM5813 695c-43-21-87-53-109-78-146-167-114-425 66-546 73-48 140-65 235-59 272 18 423 327 274 560-37 57-74 90-143 125-43 23-67 28-151 31-99 4-101 3-172-33zm290-28c74-34 131-88 164-155 24-48 28-70 28-137 0-66-5-90-27-137-117-250-466-252-588-3-34 68-35 197-4 266 77 166 266 240 427 166z" fill="#2867b2" class="color000 svgShape"></path><path d="M5850 370 l0 -190 25 0 c25 0 25 1 25 85 l0 85 34 0 c31 0 37 -6 87-85 47 -74 57 -85 82 -85 32 0 34 -6 -34 97 l-48 71 27 7 c65 16 96 83 68 148
-20 48 -45 57 -167 57 l-99 0 0 -190z m202 133 c10 -9 18 -30 18 -49 0 -47
-29 -64 -107 -64 l-63 0 0 65 0 65 67 0 c48 0 72 -5 85 -17z" fill="#2867b2" class="color000 svgShape"></path></g></svg></g></svg>